# Blender 4.2.0
# www.blender.org
mtllib D4.mtl
o polySurface5
v 0.002617 0.740454 0.064959
v -0.630408 -0.199223 0.474518
v 0.659866 -0.211206 0.486483
v 0.747855 -0.211069 0.330938
v 0.066017 -0.197963 -0.785396
v 0.089586 0.742172 -0.091420
v 0.649323 -0.342105 0.399243
v -0.024240 -0.340356 -0.709520
v -0.633728 -0.341335 0.393191
v -0.724432 -0.197396 0.317284
v -0.092400 0.740700 -0.091449
v -0.108509 -0.196437 -0.771533
v 0.038939 -0.206737 -0.768960
v 0.062508 0.733399 -0.074984
v 0.720777 -0.219842 0.347374
v -0.630280 -0.214492 0.445412
v 0.659995 -0.226474 0.457377
v 0.002745 0.725185 0.035853
v -0.024220 -0.307487 -0.709480
v -0.633709 -0.308466 0.393231
v 0.649343 -0.309236 0.399283
v -0.064917 0.731556 -0.075911
v -0.081026 -0.205581 -0.755995
v -0.696950 -0.206540 0.332822
v 0.780081 -0.260560 0.512903
v 0.779537 -0.342261 0.464068
v 0.820803 -0.261587 0.424156
v 0.784417 -0.267832 0.360876
v 0.735544 -0.342156 0.399649
v -0.020365 -0.340187 -0.849696
v -0.065176 -0.262829 -0.887248
v 0.024191 -0.263192 -0.889123
v 0.029205 -0.197256 -0.845665
v -0.067494 -0.196373 -0.844040
v -0.049422 0.864880 -0.094383
v 0.001019 0.882145 -0.009375
v 0.047331 0.867435 -0.094175
v 0.046638 0.810580 0.028366
v 0.090978 0.801724 -0.057340
v -0.063934 -0.340252 -0.774865
v -0.109549 -0.261372 -0.807907
v -0.759144 -0.341337 0.455898
v -0.761112 -0.260254 0.505958
v -0.802010 -0.261572 0.416727
v -0.716570 -0.198423 0.473719
v -0.765224 -0.197459 0.389394
v -0.667788 -0.258770 0.505591
v -0.668062 -0.341390 0.455309
v 0.743645 -0.211984 0.487260
v 0.791641 -0.211910 0.402627
v 0.690486 -0.258743 0.511555
v 0.687857 -0.342205 0.462674
v -0.043770 0.812468 0.026978
v -0.091406 0.802752 -0.056690
v 0.046688 0.808772 -0.126546
v -0.050047 0.808168 -0.126655
v 0.064525 -0.261878 -0.821972
v 0.019022 -0.340286 -0.787792
v -0.719027 -0.341284 0.392789
v -0.768185 -0.267093 0.353653
vn 0.8045 0.3396 -0.4874
vn -0.0048 0.4022 0.9155
vn -0.0006 -1.0000 -0.0012
vn -0.8159 0.3487 -0.4612
vn 0.5619 -0.5003 0.6587
vn -0.2957 -0.5502 -0.7809
vn -0.2228 0.9637 0.1474
vn 0.0125 0.8855 -0.4645
vn -0.8451 -0.4749 0.2454
vn 0.8501 -0.4648 0.2476
vn 0.8752 -0.0011 0.4837
vn -0.8547 -0.0001 0.5192
vn 0.0047 0.0012 -1.0000
vn -0.5471 -0.4855 0.6819
vn 0.2418 0.9605 0.1376
vn 0.2747 -0.5336 -0.7999
vn 0.6923 0.6306 0.3508
vn 0.6944 0.6319 0.3442
vn 0.6944 0.6319 0.3443
vn -0.0183 -0.5088 0.8607
vn -0.0053 -0.5123 0.8588
vn -0.0052 -0.5124 0.8588
vn 0.6871 -0.6043 -0.4034
vn 0.6754 -0.6127 -0.4105
vn 0.6753 -0.6127 -0.4105
vn 0.6752 -0.6123 -0.4112
vn 0.6753 -0.6122 -0.4113
vn 0.6859 -0.5955 -0.4181
vn -0.7052 -0.5875 -0.3969
vn -0.6899 -0.6093 -0.3908
vn -0.6901 -0.6091 -0.3908
vn -0.0121 0.5478 -0.8365
vn -0.0059 0.5795 -0.8149
vn -0.0056 0.5769 -0.8168
vn -0.0056 0.5767 -0.8169
vn -0.0066 0.4888 -0.8723
vn -0.7058 0.6378 0.3083
vn -0.6923 0.6253 0.3601
vn -0.6923 0.6253 0.3602
vn 0.7195 0.6285 0.2956
vn 0.6961 0.6318 0.3409
vn 0.6963 0.6318 0.3407
vn -0.6894 -0.6106 -0.3898
vn -0.6893 -0.6106 -0.3899
vn -0.6953 -0.6094 -0.3810
vn 0.0085 -0.5225 0.8526
vn -0.0035 -0.5132 0.8582
vn -0.0036 -0.5132 0.8583
vn -0.6977 0.6202 0.3587
vn -0.6917 0.6241 0.3634
vn -0.8108 0.3221 -0.4888
vn -0.8223 0.3285 -0.4647
vn -0.8233 0.3010 -0.4812
vn -0.8113 0.3212 -0.4884
vn -0.0309 0.4260 0.9042
vn -0.0203 0.4409 0.8973
vn -0.0047 0.4222 0.9065
vn -0.0300 0.4263 0.9041
vn 0.0119 0.4414 0.8972
vn 0.0225 0.4257 0.9046
vn 0.0214 0.4273 0.9039
vn -0.0039 0.4645 0.8855
vn 0.8104 0.2917 -0.5081
vn 0.8238 0.2669 -0.5000
vn 0.8238 0.2669 -0.5001
vn 0.8253 0.2938 -0.4823
vn 0.7986 0.3123 -0.5145
vn 0.8110 0.3181 -0.4910
vn 0.7985 0.3124 -0.5145
vn 0.8261 0.3141 -0.4679
vn 0.8258 0.3147 -0.4680
vn -0.8361 0.2782 -0.4727
vn -0.8361 0.2782 -0.4728
vn -0.8361 0.3047 -0.4561
vn -0.8355 0.3258 -0.4424
vn -0.8356 0.3246 -0.4432
vn 0.8792 -0.2487 0.4063
vn -0.0206 -0.4462 -0.8947
vn -0.0255 0.9825 -0.1844
vn -0.8736 -0.2709 0.4044
vt 0.999969 0.452890
vt 1.000000 0.737381
vt 0.725929 0.615045
vt 0.972137 0.101034
vt 0.972099 0.415129
vt 0.720744 0.252027
vt 0.707856 0.592108
vt 0.860230 0.858261
vt 0.544447 0.858261
vt 0.525697 0.812306
vt 0.383705 0.568807
vt 0.688202 0.568791
vt 0.546225 0.534503
vt 0.844161 0.533918
vt 0.851224 0.538316
vt 0.539262 0.538252
vt 0.713658 0.250174
vt 0.713075 0.242105
vt 0.554817 0.000000
vt 0.846372 0.173567
vt 0.838290 0.174167
vt 0.558663 0.006933
vt 0.554883 0.320569
vt 0.559172 0.313481
vt 0.701914 0.563633
vt 0.541203 0.855718
vt 0.539739 0.847621
vt 0.695563 0.568834
vt 0.362965 0.563619
vt 0.370674 0.566460
vt 0.230077 0.859774
vt 0.524473 0.860888
vt 0.531901 0.864118
vt 0.222964 0.864097
vt 0.367264 0.586550
vt 0.367003 0.578625
vt 0.342722 0.565591
vt 0.359608 0.579177
vt 0.349698 0.590548
vt 0.330990 0.573585
vt 0.359661 0.552142
vt 0.326506 0.555442
vt 0.343065 0.537229
vt 0.003858 0.315307
vt 0.000000 0.276284
vt 0.022727 0.275441
vt 0.025439 0.311210
vt 0.325387 0.286786
vt 0.325835 0.307912
vt 0.333187 0.289441
vt 0.335083 0.304931
vt 0.344448 0.297233
vt 0.334613 0.279524
vt 0.353254 0.290452
vt 0.352712 0.303247
vt 0.334839 0.314010
vt 0.489245 0.521244
vt 0.457045 0.540493
vt 0.499914 0.537400
vt 0.465801 0.557775
vt 0.025970 0.727115
vt 0.005249 0.735416
vt 0.000015 0.714309
vt 0.024740 0.707568
vt 0.027207 0.748838
vt 0.044239 0.718742
vt 0.049251 0.743973
vt 0.055005 0.739764
vt 0.340796 0.595176
vt 0.460674 0.021005
vt 0.491163 0.041168
vt 0.470866 0.001942
vt 0.503545 0.024003
vt 0.025910 0.374859
vt 0.029153 0.353567
vt 0.050244 0.360562
vt 0.043495 0.384306
vt 0.005592 0.367106
vt 0.024200 0.392563
vt 0.000000 0.385651
vt 0.523656 0.053028
vt 0.552210 0.051348
vt 0.552190 0.507052
vt 0.523722 0.506753
vt 0.055584 0.364069
vt 0.338110 0.534910
vt 0.506682 0.493455
vt 0.504725 0.069693
vt 0.322768 0.270214
vt 0.430284 0.021560
vt 0.042556 0.403117
vt 0.044886 0.696599
vt 0.313364 0.562946
vt 0.040536 0.331622
vt 0.324446 0.321992
vt 0.015598 0.339590
vt 0.424550 0.542905
vt 0.427495 0.563622
vt 0.432492 0.000023
vt 0.016928 0.241960
vt 0.038600 0.249746
vt 0.366479 0.296769
s 1
usemtl d4
f 13/1/1 14/2/1 15/3/1
f 16/4/2 17/5/2 18/6/2
f 20/7/3 19/8/3 21/9/3
f 22/10/4 23/11/4 24/12/4
f 5/13/5 6/14/5 14/15/5 13/16/5
f 6/14/6 4/17/6 15/18/6 14/15/6
f 4/17/7 5/13/7 13/16/7 15/18/7
f 2/19/8 3/20/8 17/21/8 16/22/8
f 3/20/9 1/23/9 18/24/9 17/21/9
f 1/23/10 2/19/10 16/22/10 18/24/10
f 9/25/11 8/26/11 19/27/11 20/28/11
f 8/26/12 7/29/12 21/30/12 19/27/12
f 7/29/13 9/25/13 20/28/13 21/30/13
f 11/31/14 12/32/14 23/33/14 22/34/14
f 12/32/15 10/35/15 24/36/15 23/33/15
f 10/35/16 11/31/16 22/34/16 24/36/16
f 25/37/17 27/38/17 50/39/18 49/40/19
f 26/41/20 25/37/20 51/42/21 52/43/22
f 27/44/23 26/45/23 29/46/24 28/47/25
f 28/47/25 29/46/24 58/48/26 57/49/27
f 30/50/28 32/51/28 57/49/27 58/48/26
f 31/52/29 30/50/29 40/53/30 41/54/31
f 32/51/32 31/52/32 34/55/33 33/56/33
f 33/56/33 34/55/33 56/57/34 55/58/35
f 35/59/36 37/60/36 55/58/35 56/57/34
f 36/61/37 35/62/37 54/63/38 53/64/39
f 37/65/40 36/61/40 38/66/41 39/67/42
f 39/68/42 38/66/41 49/40/19 50/69/18
f 41/54/31 40/53/30 59/70/43 60/71/44
f 42/72/45 44/73/45 60/71/44 59/70/43
f 43/74/46 42/75/46 48/76/47 47/77/48
f 44/78/49 43/74/49 45/79/50 46/80/50
f 46/81/50 45/82/50 53/83/39 54/84/38
f 47/77/48 48/85/47 52/86/22 51/42/21
f 54/84/51 11/87/52 10/88/53 46/81/54
f 40/53/3 8/89/3 9/90/3 59/70/3
f 45/79/55 2/91/56 1/92/57 53/64/58
f 3/93/59 49/40/60 38/66/61 1/92/57
f 53/64/58 1/92/57 38/66/61 36/61/62
f 47/77/62 2/91/56 45/79/55 43/74/62
f 51/42/62 3/93/59 2/91/56 47/77/62
f 25/37/62 49/40/60 3/93/59 51/42/62
f 4/94/63 28/47/64 57/49/65 5/95/66
f 50/96/67 4/94/63 6/97/68 39/98/69
f 27/44/64 28/47/64 4/94/63 50/96/67
f 5/95/66 57/49/65 32/51/65 33/56/70
f 55/58/71 6/97/68 5/95/66 33/56/70
f 39/98/69 6/97/68 55/58/71 37/60/64
f 9/90/3 48/99/3 42/72/3 59/70/3
f 58/48/3 8/89/3 40/53/3 30/50/3
f 26/45/3 52/100/3 7/101/3 29/46/3
f 29/46/3 7/101/3 8/89/3 58/48/3
f 7/101/3 52/100/3 48/99/3 9/90/3
f 10/88/53 60/71/72 44/73/73 46/81/54
f 12/102/74 41/54/72 60/71/72 10/88/53
f 56/57/75 11/87/52 54/84/51 35/59/72
f 34/55/76 12/102/74 11/87/52 56/57/75
f 31/52/72 41/54/72 12/102/74 34/55/76
f 25/37/77 26/41/77 27/38/77
f 30/50/78 31/52/78 32/51/78
f 35/62/79 36/61/79 37/65/79
f 42/75/80 43/74/80 44/78/80
