# Blender 4.2.0
# www.blender.org
mtllib D6.mtl
o polySurface2.001
v -0.601490 -0.598182 -0.734456
v 0.595842 -0.598182 -0.734456
v 0.595842 -0.598182 0.737178
v -0.601490 -0.598182 0.737178
v -0.601490 0.602073 -0.734456
v 0.595842 0.602073 -0.734457
v 0.595842 0.602073 0.737178
v -0.601490 0.602073 0.737178
v -0.601490 0.734520 0.597927
v 0.595842 0.734520 0.597928
v 0.737696 0.602073 0.597928
v 0.737698 -0.598182 0.597927
v 0.595842 -0.737114 0.597928
v -0.601490 -0.737114 0.597928
v -0.733937 -0.598182 0.597928
v -0.733937 0.602073 0.597928
v -0.601490 -0.737114 -0.602009
v 0.595842 -0.737114 -0.602009
v 0.737696 -0.598182 -0.602009
v 0.737696 0.602073 -0.602009
v 0.595842 0.734520 -0.602009
v -0.601490 0.734520 -0.602009
v -0.733937 0.602073 -0.602009
v -0.733937 -0.598182 -0.602009
v 0.595842 -0.704245 0.597928
v -0.601490 -0.704245 0.597928
v -0.601490 -0.704245 -0.602009
v 0.595842 -0.704245 -0.602009
v 0.595842 0.701652 -0.602009
v -0.601490 0.701652 -0.602009
v -0.601490 0.701652 0.597927
v 0.595842 0.701652 0.597928
v -0.601490 -0.598182 -0.701588
v 0.595842 -0.598182 -0.701588
v -0.601490 0.602073 -0.701588
v 0.595842 0.602073 -0.701588
v 0.704827 -0.598182 -0.602009
v 0.704827 0.602073 -0.602009
v 0.704827 0.602073 0.597928
v 0.704828 -0.598182 0.597927
v 0.595842 0.602073 0.704309
v -0.601490 0.602073 0.704309
v -0.601490 -0.598182 0.704309
v 0.595842 -0.598182 0.704309
v -0.701069 0.602073 -0.602009
v -0.701069 -0.598182 -0.602009
v -0.701069 -0.598182 0.597928
v -0.701069 0.602073 0.597928
v -0.667721 0.668304 0.737178
v -0.667721 0.734520 0.670962
v -0.733937 0.668304 0.670962
v -0.601490 0.668304 0.737178
v -0.601490 0.734520 0.670962
v -0.667721 0.734520 -0.668240
v -0.667721 0.668304 -0.734456
v -0.733937 0.668304 -0.668240
v -0.601490 0.734520 -0.668240
v -0.601490 0.668304 -0.734456
v -0.667721 -0.670898 -0.734457
v -0.667721 -0.737114 -0.668240
v -0.733937 -0.670898 -0.668240
v -0.601490 -0.670898 -0.734456
v -0.601490 -0.737114 -0.668240
v -0.667721 -0.737114 0.670962
v -0.667721 -0.670898 0.737178
v -0.733937 -0.670898 0.670962
v -0.601490 -0.737114 0.670962
v -0.601490 -0.670898 0.737178
v -0.667721 0.734520 0.597928
v -0.733937 0.668304 0.597928
v 0.737696 0.668304 0.670961
v 0.671480 0.734520 0.670961
v 0.671480 0.668304 0.737178
v 0.671480 0.734520 0.597928
v 0.737696 0.668304 0.597928
v -0.667721 0.602073 -0.734456
v -0.733937 0.602073 -0.668240
v 0.737696 0.668304 -0.668240
v 0.671480 0.668304 -0.734457
v 0.671480 0.734520 -0.668240
v 0.671480 0.602073 -0.734456
v 0.737696 0.602073 -0.668240
v -0.667721 -0.737114 -0.602009
v -0.733937 -0.670898 -0.602009
v 0.737698 -0.670898 -0.668240
v 0.671480 -0.737114 -0.668240
v 0.671480 -0.670898 -0.734457
v 0.671480 -0.737114 -0.602009
v 0.737696 -0.670898 -0.602009
v -0.667721 -0.598182 0.737178
v -0.733937 -0.598182 0.670962
v 0.737698 -0.670898 0.670961
v 0.671480 -0.670898 0.737178
v 0.671480 -0.737114 0.670961
v 0.671480 -0.598182 0.737178
v 0.737698 -0.598182 0.670962
v 0.595842 0.668304 0.737178
v 0.595842 0.734520 0.670962
v 0.595842 -0.737114 0.670962
v 0.595842 -0.670898 0.737178
v 0.595842 -0.670898 -0.734457
v 0.595842 -0.737114 -0.668240
v 0.595842 0.734520 -0.668240
v 0.595842 0.668304 -0.734457
v -0.667721 -0.598182 -0.734456
v -0.733937 -0.598182 -0.668240
v 0.737698 -0.598182 -0.668240
v 0.671480 -0.598182 -0.734457
v 0.671480 0.602073 0.737178
v 0.737696 0.602073 0.670962
v -0.667721 0.602073 0.737178
v -0.733937 0.602073 0.670962
v -0.667721 0.734520 -0.602009
v -0.733937 0.668304 -0.602009
v 0.737696 0.668304 -0.602009
v 0.671480 0.734520 -0.602009
v 0.737698 -0.670898 0.597928
v 0.671480 -0.737114 0.597928
v -0.667721 -0.737114 0.597928
v -0.733937 -0.670898 0.597928
vn -0.0000 -1.0000 -0.0000
vn -0.0000 1.0000 -0.0000
vn -0.0000 -0.0000 -1.0000
vn 1.0000 -0.0000 -0.0000
vn -0.0000 -0.0000 1.0000
vn -1.0000 -0.0000 -0.0000
vn -0.7071 -0.0000 0.7071
vn -0.0000 0.7071 0.7071
vn -0.7071 0.7071 -0.0000
vn -0.0000 0.7071 -0.7071
vn -0.7071 -0.0000 -0.7071
vn -0.0000 -0.7071 -0.7071
vn -0.7071 -0.7071 -0.0000
vn -0.0000 -0.7071 0.7071
vn 0.7071 -0.0000 0.7071
vn 0.7071 0.7071 -0.0000
vn 0.7071 -0.0000 -0.7071
vn 0.7071 -0.7071 -0.0000
vn -0.5773 0.5774 0.5774
vn -0.5773 0.5774 -0.5774
vn -0.5773 -0.5774 -0.5774
vn -0.5773 -0.5774 0.5774
vn 0.5774 0.5773 0.5773
vn 0.5774 0.5773 -0.5773
vn 0.5773 -0.5774 -0.5774
vn 0.5773 -0.5774 0.5774
vt 0.192351 1.000000
vt 0.000000 0.999969
vt 0.000031 0.807200
vt 0.192382 0.807230
vt 0.915788 0.994895
vt 0.723437 0.994864
vt 0.723468 0.802095
vt 0.915819 0.802126
vt 0.678272 0.816985
vt 0.485921 0.817015
vt 0.485890 0.624194
vt 0.678242 0.624164
vt 0.883878 0.802084
vt 0.691057 0.802097
vt 0.691044 0.609327
vt 0.883865 0.609314
vt 0.230173 0.807175
vt 0.037822 0.807206
vt 0.037791 0.614385
vt 0.230143 0.614354
vt 0.230625 0.614354
vt 0.037804 0.614367
vt 0.037791 0.421597
vt 0.230612 0.421584
vt 0.688598 0.624164
vt 0.485957 0.624158
vt 0.489488 0.620404
vt 0.684848 0.620653
vt 0.485890 0.421106
vt 0.489641 0.424618
vt 0.688531 0.421112
vt 0.684999 0.424866
vt 0.920696 0.609323
vt 0.718042 0.609272
vt 0.721580 0.605524
vt 0.916942 0.605816
vt 0.718038 0.406215
vt 0.721787 0.409727
vt 0.920668 0.406278
vt 0.917136 0.410032
vt 0.683146 0.421112
vt 0.480492 0.421047
vt 0.484030 0.417299
vt 0.679392 0.417604
vt 0.480501 0.217939
vt 0.484250 0.221451
vt 0.683131 0.218015
vt 0.679599 0.221769
vt 0.696443 0.406221
vt 0.696464 0.203097
vt 0.700214 0.206633
vt 0.699951 0.402467
vt 0.899521 0.203063
vt 0.896008 0.206811
vt 0.899489 0.406162
vt 0.895733 0.402632
vt 0.026994 0.421596
vt 0.027065 0.218959
vt 0.030817 0.222491
vt 0.030506 0.417847
vt 0.230159 0.218942
vt 0.226648 0.222692
vt 0.230108 0.421584
vt 0.226350 0.418057
vt 0.915814 0.203064
vt 0.712707 0.203044
vt 0.716237 0.199289
vt 0.912065 0.199552
vt 0.712639 0.000000
vt 0.716389 0.003512
vt 0.915752 0.000001
vt 0.912227 0.003761
vt 0.254291 0.905397
vt 0.239888 0.907789
vt 0.238390 0.896411
vt 0.253441 0.895418
vt 0.251844 0.919410
vt 0.264183 0.905915
vt 0.263491 0.920921
vt 0.230434 0.000424
vt 0.245622 0.000165
vt 0.245734 0.011904
vt 0.230581 0.012161
vt 0.456722 0.903795
vt 0.457716 0.918845
vt 0.247194 0.216097
vt 0.232505 0.216098
vt 0.232351 0.205381
vt 0.247298 0.205119
vt 0.248724 0.230940
vt 0.258087 0.215451
vt 0.258693 0.230460
vt 0.234843 0.228278
vt 0.248007 0.241059
vt 0.233023 0.240208
vt 0.449949 0.214448
vt 0.449502 0.229406
vt 0.250233 0.445321
vt 0.235959 0.448046
vt 0.234134 0.435290
vt 0.249174 0.434196
vt 0.248539 0.459901
vt 0.259983 0.445590
vt 0.259409 0.460568
vt 0.233669 0.459496
vt 0.248538 0.470996
vt 0.233336 0.470223
vt 0.451273 0.444132
vt 0.451920 0.459110
vt 0.250220 0.676577
vt 0.235312 0.676976
vt 0.234949 0.665147
vt 0.250114 0.664413
vt 0.251952 0.691415
vt 0.261142 0.675873
vt 0.261914 0.690908
vt 0.238090 0.688745
vt 0.251310 0.702568
vt 0.236307 0.701787
vt 0.453789 0.673872
vt 0.453373 0.688819
vt 0.482230 0.905166
vt 0.468188 0.902809
vt 0.468670 0.892931
vt 0.483682 0.893521
vt 0.463345 0.000135
vt 0.478543 0.000295
vt 0.478420 0.012033
vt 0.463255 0.011878
vt 0.470682 0.917198
vt 0.477152 0.204564
vt 0.462215 0.204254
vt 0.477038 0.215259
vt 0.462373 0.215218
vt 0.460726 0.229698
vt 0.475025 0.227040
vt 0.476815 0.238652
vt 0.461784 0.239768
vt 0.478381 0.433380
vt 0.463385 0.432546
vt 0.017552 0.208450
vt 0.002508 0.208665
vt 0.000000 0.015690
vt 0.015047 0.015473
vt 0.476480 0.446331
vt 0.462596 0.443552
vt 0.464356 0.458389
vt 0.479255 0.458261
vt 0.479430 0.469055
vt 0.464380 0.469335
vt 0.481155 0.662146
vt 0.466106 0.662313
vt 0.694178 0.002949
vt 0.709224 0.003136
vt 0.709078 0.014871
vt 0.694032 0.014684
vt 0.464614 0.689037
vt 0.478888 0.686222
vt 0.480758 0.698856
vt 0.465730 0.700074
vt 0.466396 0.674636
vt 0.450100 0.203880
vt 0.450990 0.011769
vt 0.451223 0.432482
vt 0.453919 0.662221
vt 0.452177 0.469669
vt 0.453573 0.700459
vt 0.691883 0.207449
vt 0.680201 0.207300
vt 0.682348 0.014537
vt 0.026734 0.015304
vt 0.029232 0.208282
vt 0.261947 0.702582
vt 0.259825 0.433921
vt 0.259237 0.471173
vt 0.260806 0.664156
vt 0.256461 0.011729
vt 0.257908 0.204848
vt 0.258634 0.241071
vt 0.449640 0.240022
vt 0.456497 0.893137
vt 0.264098 0.895259
vt 0.489134 0.012152
vt 0.487720 0.204735
vt 0.221780 0.205533
vt 0.219870 0.012346
vt 0.256406 0.000000
vt 0.451019 0.000031
vt 0.489273 0.000418
vt 0.682491 0.002803
vt 0.014883 0.003737
vt 0.026568 0.003569
vt 0.219710 0.000610
vt 0.680060 0.217942
vt 0.691745 0.218092
vt 0.487578 0.215378
vt 0.221949 0.216179
vt 0.029394 0.218924
vt 0.017710 0.219095
s 1
usemtl d6.003
f 25/1/1 26/2/1 27/3/1 28/4/1
f 29/5/2 30/6/2 31/7/2 32/8/2
f 34/9/3 33/10/3 35/11/3 36/12/3
f 37/13/4 38/14/4 39/15/4 40/16/4
f 41/17/5 42/18/5 43/19/5 44/20/5
f 45/21/6 46/22/6 47/23/6 48/24/6
f 13/25/3 14/26/3 26/27/3 25/28/3
f 14/26/4 17/29/4 27/30/4 26/27/4
f 17/29/5 18/31/5 28/32/5 27/30/5
f 18/31/6 13/25/6 25/28/6 28/32/6
f 21/33/5 22/34/5 30/35/5 29/36/5
f 22/34/4 9/37/4 31/38/4 30/35/4
f 9/37/3 10/39/3 32/40/3 31/38/3
f 10/39/6 21/33/6 29/36/6 32/40/6
f 2/41/2 1/42/2 33/43/2 34/44/2
f 1/42/4 5/45/4 35/46/4 33/43/4
f 5/45/1 6/47/1 36/48/1 35/46/1
f 6/47/6 2/41/6 34/44/6 36/48/6
f 19/49/5 20/50/5 38/51/5 37/52/5
f 20/50/1 11/53/1 39/54/1 38/51/1
f 11/53/3 12/55/3 40/56/3 39/54/3
f 12/55/2 19/49/2 37/52/2 40/56/2
f 7/57/1 8/58/1 42/59/1 41/60/1
f 8/58/4 4/61/4 43/62/4 42/59/4
f 4/61/2 3/63/2 44/64/2 43/62/2
f 3/63/6 7/57/6 41/60/6 44/64/6
f 23/65/5 24/66/5 46/67/5 45/68/5
f 24/66/2 15/69/2 47/70/2 46/67/2
f 15/69/3 16/71/3 48/72/3 47/70/3
f 16/71/1 23/65/1 45/68/1 48/72/1
f 49/73/7 51/74/7 112/75/7 111/76/7
f 50/77/8 49/73/8 52/78/8 53/79/8
f 51/80/9 50/81/9 69/82/9 70/83/9
f 53/79/8 52/78/8 97/84/8 98/85/8
f 54/86/9 56/87/9 114/88/9 113/89/9
f 55/90/10 54/86/10 57/91/10 58/92/10
f 56/93/11 55/90/11 76/94/11 77/95/11
f 58/92/10 57/91/10 103/96/10 104/97/10
f 59/98/11 61/99/11 106/100/11 105/101/11
f 60/102/12 59/98/12 62/103/12 63/104/12
f 61/105/13 60/102/13 83/106/13 84/107/13
f 63/104/12 62/103/12 101/108/12 102/109/12
f 64/110/13 66/111/13 120/112/13 119/113/13
f 65/114/14 64/110/14 67/115/14 68/116/14
f 66/117/7 65/114/7 90/118/7 91/119/7
f 68/116/14 67/115/14 99/120/14 100/121/14
f 70/83/9 69/82/9 113/89/9 114/88/9
f 71/122/15 73/123/15 109/124/15 110/125/15
f 72/126/16 71/127/16 75/128/16 74/129/16
f 73/123/8 72/130/8 98/85/8 97/84/8
f 74/129/16 75/128/16 115/131/16 116/132/16
f 77/95/11 76/94/11 105/101/11 106/100/11
f 78/133/16 80/134/16 116/132/16 115/131/16
f 79/135/17 78/136/17 82/137/17 81/138/17
f 80/134/10 79/135/10 104/97/10 103/96/10
f 81/138/17 82/137/17 107/139/17 108/140/17
f 84/141/13 83/142/13 119/143/13 120/144/13
f 85/145/17 87/146/17 108/140/17 107/139/17
f 86/147/18 85/148/18 89/149/18 88/150/18
f 87/146/12 86/147/12 102/109/12 101/108/12
f 88/150/18 89/149/18 117/151/18 118/152/18
f 91/119/7 90/118/7 111/76/7 112/75/7
f 92/153/18 94/154/18 118/155/18 117/156/18
f 93/157/15 92/158/15 96/159/15 95/160/15
f 94/161/14 93/157/14 100/121/14 99/120/14
f 95/160/15 96/159/15 110/125/15 109/124/15
f 116/132/2 21/162/2 10/163/2 74/129/2
f 101/108/3 2/164/3 108/140/3 87/146/3
f 118/152/1 13/165/1 18/166/1 88/150/1
f 95/160/5 3/167/5 100/121/5 93/157/5
f 89/168/4 19/169/4 12/170/4 117/156/4
f 120/144/6 15/171/6 24/172/6 84/141/6
f 3/167/5 4/173/5 68/116/5 100/121/5
f 62/103/3 1/174/3 2/164/3 101/108/3
f 65/114/5 68/116/5 4/173/5 90/118/5
f 83/106/1 17/175/1 14/176/1 119/113/1
f 105/101/3 1/174/3 62/103/3 59/98/3
f 69/82/2 9/177/2 22/178/2 113/89/2
f 76/94/3 5/179/3 1/174/3 105/101/3
f 108/140/3 2/164/3 6/180/3 81/138/3
f 109/124/5 7/181/5 3/167/5 95/160/5
f 90/118/5 4/173/5 8/182/5 111/76/5
f 55/90/3 58/92/3 5/179/3 76/94/3
f 6/180/3 5/179/3 58/92/3 104/97/3
f 81/138/3 6/180/3 104/97/3 79/135/3
f 75/128/4 11/183/4 20/184/4 115/131/4
f 97/84/5 7/181/5 109/124/5 73/123/5
f 52/78/5 8/182/5 7/181/5 97/84/5
f 111/76/5 8/182/5 52/78/5 49/73/5
f 114/88/6 23/185/6 16/186/6 70/83/6
f 50/81/2 53/187/2 9/177/2 69/82/2
f 10/163/2 9/177/2 53/187/2 98/188/2
f 74/129/2 10/163/2 98/188/2 72/126/2
f 71/127/4 110/189/4 11/183/4 75/128/4
f 12/170/4 11/183/4 110/189/4 96/190/4
f 117/156/4 12/170/4 96/190/4 92/153/4
f 99/120/1 13/165/1 118/152/1 94/161/1
f 67/115/1 14/176/1 13/165/1 99/120/1
f 119/113/1 14/176/1 67/115/1 64/110/1
f 66/191/6 91/192/6 15/171/6 120/144/6
f 16/186/6 15/171/6 91/192/6 112/193/6
f 70/83/6 16/186/6 112/193/6 51/80/6
f 60/102/1 63/104/1 17/175/1 83/106/1
f 18/166/1 17/175/1 63/104/1 102/109/1
f 88/150/1 18/166/1 102/109/1 86/147/1
f 107/194/4 19/169/4 89/168/4 85/195/4
f 82/196/4 20/184/4 19/169/4 107/194/4
f 115/131/4 20/184/4 82/196/4 78/133/4
f 103/96/2 21/162/2 116/132/2 80/134/2
f 57/91/2 22/178/2 21/162/2 103/96/2
f 113/89/2 22/178/2 57/91/2 54/86/2
f 77/197/6 23/185/6 114/88/6 56/87/6
f 106/198/6 24/172/6 23/185/6 77/197/6
f 84/141/6 24/172/6 106/198/6 61/199/6
f 49/73/19 50/77/19 51/74/19
f 54/86/20 55/90/20 56/93/20
f 59/98/21 60/102/21 61/99/21
f 64/110/22 65/114/22 66/117/22
f 71/122/23 72/130/23 73/123/23
f 78/136/24 79/135/24 80/134/24
f 85/145/25 86/147/25 87/146/25
f 92/158/26 93/157/26 94/161/26
