# Blender 4.2.0
# www.blender.org
mtllib D8.mtl
o polySurface1
v -0.099997 -0.100039 -0.800960
v -0.801096 -0.100039 -0.099860
v -0.099998 -0.808928 -0.092071
v -0.099997 -0.800039 0.099040
v -0.801095 -0.098941 0.099040
v -0.099997 -0.091150 0.807929
v 0.100003 -0.800039 0.099040
v 0.801102 -0.098941 0.099040
v 0.100003 -0.091150 0.807929
v 0.801102 -0.100039 -0.099861
v 0.100003 -0.100039 -0.800960
v 0.100003 -0.808928 -0.092071
v 0.100003 0.099961 -0.800960
v 0.100003 0.799960 -0.100960
v 0.800003 0.099961 -0.100960
v -0.099997 0.099961 -0.800960
v -0.799997 0.099961 -0.100960
v -0.099998 0.799960 -0.100960
v 0.100003 0.799960 0.099040
v 0.100003 0.099961 0.799040
v 0.800003 0.099961 0.099040
v -0.099997 0.099961 0.799040
v -0.799996 0.099960 0.099040
v -0.099997 0.799960 0.099040
v 0.081026 0.780983 -0.081983
v 0.781026 0.080984 -0.081983
v 0.081026 0.080984 -0.781983
v 0.081026 0.080984 0.780064
v 0.781026 0.080984 0.080064
v 0.081026 0.780983 0.080063
v 0.782124 -0.079965 0.080064
v 0.081026 -0.072174 0.788952
v 0.081026 -0.781062 0.080064
v -0.081020 -0.789951 -0.073094
v -0.081019 -0.081063 -0.781983
v -0.782119 -0.081063 -0.080884
v -0.782118 -0.079964 0.080064
v -0.081021 -0.072174 0.788952
v -0.081020 -0.781062 0.080064
v 0.081027 -0.789951 -0.073094
v 0.782124 -0.081063 -0.080884
v 0.081026 -0.081063 -0.781983
v -0.781020 0.080984 -0.081983
v -0.081021 0.780983 -0.081983
v -0.081021 0.080984 -0.781983
v -0.781020 0.080983 0.080064
v -0.081020 0.780984 0.080064
v -0.081020 0.080984 0.780064
v 0.940010 0.029957 0.029037
v 0.940009 -0.030036 0.029037
v 0.940009 -0.030036 -0.030957
v 0.940010 0.029957 -0.030957
v 0.870255 -0.030118 -0.100629
v 0.870088 0.029875 -0.100960
v 0.030000 -0.030036 -0.940966
v -0.029994 -0.030036 -0.940966
v -0.029994 0.029958 -0.940966
v 0.029999 0.029957 -0.940966
v 0.029999 0.099961 -0.870963
v -0.029995 0.099961 -0.870963
v 0.030000 0.939967 0.029037
v 0.030000 0.939967 -0.030957
v -0.029994 0.939967 -0.030956
v -0.029994 0.939967 0.029037
v 0.100004 0.869963 -0.030957
v 0.100004 0.869963 0.029037
v -0.099997 -0.030036 -0.870963
v -0.099998 0.029957 -0.870963
v -0.940003 -0.030036 -0.030956
v -0.940003 -0.030036 0.029037
v -0.940003 0.029958 0.029037
v -0.940003 0.029958 -0.030956
v -0.870000 0.099960 -0.030957
v -0.870000 0.099960 0.029037
v -0.870000 -0.030036 0.099040
v -0.870000 0.029957 0.099040
v 0.030000 -0.030036 0.939047
v 0.029999 0.029957 0.939047
v -0.029994 0.029958 0.939047
v -0.029994 -0.030036 0.939047
v 0.029999 0.099961 0.869044
v -0.029995 0.099961 0.869043
v 0.100003 -0.030036 0.869043
v 0.100003 0.029958 0.869043
v 0.029999 -0.940045 0.029037
v -0.029994 -0.940046 0.029037
v -0.029994 -0.940046 -0.030957
v 0.029999 -0.940045 -0.030957
v -0.029995 -0.879709 -0.091293
v 0.030000 -0.879709 -0.091293
v 0.870254 -0.099709 0.029119
v 0.870088 -0.100039 -0.030875
v -0.099998 -0.870042 -0.030957
v -0.099998 -0.870042 0.029037
v -0.029994 -0.870042 0.099040
v 0.029999 -0.870043 0.099040
v -0.029994 -0.100039 -0.870963
v 0.030000 -0.100039 -0.870963
v -0.870081 -0.100040 -0.030875
v -0.870248 -0.099709 0.029119
v -0.870249 -0.030118 -0.100629
v -0.870081 0.029875 -0.100960
v -0.029994 -0.090373 0.878710
v 0.030000 -0.090373 0.878710
v -0.099997 -0.030036 0.869043
v -0.099997 0.029957 0.869043
v 0.870006 -0.030036 0.099040
v 0.870005 0.029957 0.099040
v 0.100003 -0.870042 0.029037
v 0.100003 -0.870042 -0.030957
v 0.100003 -0.030036 -0.870963
v 0.100003 0.029958 -0.870963
v 0.870006 0.099961 -0.030957
v 0.870006 0.099961 0.029037
v 0.030000 0.869963 -0.100960
v -0.029994 0.869963 -0.100960
v -0.099997 0.869964 -0.030957
v -0.099997 0.869964 0.029037
v 0.030000 0.869963 0.099040
v -0.029994 0.869963 0.099040
vn 0.5773 0.5774 -0.5774
vn 0.5773 0.5774 0.5774
vn 0.5774 -0.5774 0.5773
vn -0.5774 -0.5774 -0.5774
vn -0.5774 -0.5774 0.5773
vn 0.5774 -0.5773 -0.5774
vn -0.5774 0.5774 -0.5773
vn -0.5774 0.5774 0.5773
vn -0.4082 -0.4082 -0.8165
vn -0.4082 0.8165 0.4082
vn 0.8165 -0.4083 0.4082
vn -0.4082 0.8165 -0.4082
vn -0.4082 -0.4082 0.8165
vn 0.8165 -0.4083 -0.4082
vn -0.4150 -0.8165 -0.4015
vn 0.8165 0.4083 -0.4083
vn -0.4082 0.4082 0.8165
vn -0.8165 0.4083 0.4083
vn 0.4150 0.4015 -0.8165
vn 0.4082 -0.8165 0.4082
vn 0.4150 -0.8165 -0.4015
vn 0.4082 0.4082 0.8165
vn -0.8165 0.4082 -0.4083
vn -0.4150 0.4015 -0.8165
vn 0.8165 0.4082 0.4082
vn -0.4082 -0.8165 0.4082
vn 0.4082 -0.4082 -0.8165
vn -0.8165 -0.4082 0.4083
vn 0.4083 0.8165 0.4083
vn 0.4082 -0.4082 0.8165
vn 0.4083 0.8165 -0.4083
vn -0.8165 -0.4083 -0.4083
vn 0.7071 0.7071 -0.0000
vn 0.7071 -0.0000 0.7071
vn 0.7071 -0.7071 0.0010
vn 0.7071 -0.0010 -0.7071
vn 0.7071 -0.0005 -0.7071
vn 0.7071 -0.0008 -0.7071
vn 0.7071 -0.0000 -0.7071
vn -0.0000 -0.7071 -0.7071
vn -0.7071 -0.0000 -0.7071
vn -0.7071 -0.0010 -0.7071
vn -0.7071 -0.0008 -0.7071
vn -0.0000 0.7071 -0.7071
vn -0.0000 0.7071 0.7071
vn -0.7071 0.7071 -0.0000
vn -0.7071 -0.7071 0.0010
vn -0.7071 -0.0000 0.7071
vn -0.0000 -0.7071 0.7071
vn 0.7071 -0.7071 -0.0000
vn -0.7071 -0.7071 -0.0000
vn -0.7071 -0.7071 0.0005
vn -0.5774 0.5773 -0.5774
vn -0.5774 0.5773 0.5774
vn -0.5774 0.5773 0.5773
vn 0.5773 -0.5773 -0.5774
vn 0.5773 -0.5774 -0.5774
vn 0.5774 -0.5774 -0.5773
vn -0.5773 -0.5774 -0.5774
vn -0.5773 -0.5773 0.5774
vn -0.5774 -0.5773 0.5774
vn -0.5774 -0.5773 0.5773
vn -0.5774 -0.5773 -0.5774
vn -0.5774 -0.5773 -0.5773
vn -0.5774 -0.5774 -0.5773
vn -0.5773 -0.5774 -0.5773
vn 0.5773 -0.5774 0.5773
vn 0.5774 -0.5773 0.5774
vn 0.5774 -0.5773 0.5773
vn 0.5773 -0.5774 -0.5773
vn 0.5774 0.5774 -0.5773
vn 0.5773 0.5773 -0.5774
vn 0.5774 0.5773 -0.5774
vn -0.5774 0.5773 -0.5773
vn -0.5773 0.5774 -0.5774
vn 0.5773 0.5773 0.5774
vn 0.5774 0.5773 0.5774
vn -0.5773 0.5774 0.5774
vn -0.5773 0.5774 0.5773
vn 1.0000 -0.0000 -0.0000
vn -0.0000 -0.0000 -1.0000
vn -0.0000 1.0000 -0.0000
vn -1.0000 -0.0000 -0.0000
vn -0.0000 -0.0000 1.0000
vn -0.0000 -1.0000 -0.0000
vt 0.240497 0.561798
vt 0.418878 0.664818
vt 0.240470 0.767791
vt 0.864484 0.180608
vt 0.967480 0.359003
vt 0.761488 0.359003
vt 0.811831 0.581440
vt 0.706380 0.402766
vt 0.914988 0.402766
vt 0.656282 0.180675
vt 0.760561 0.000000
vt 0.862598 0.180646
vt 0.810684 0.733359
vt 0.912696 0.914019
vt 0.706380 0.914019
vt 0.433804 0.668823
vt 0.539254 0.847497
vt 0.330646 0.847497
vt 0.820250 0.103020
vt 0.998645 0.000024
vt 0.998645 0.206017
vt 0.761488 0.608962
vt 0.967481 0.608936
vt 0.864507 0.787344
vt 0.705482 0.411103
vt 0.819604 0.608954
vt 0.812895 0.606501
vt 0.706619 0.418136
vt 0.591155 0.608976
vt 0.596699 0.604506
vt 0.824096 0.723277
vt 0.626245 0.837399
vt 0.628699 0.830690
vt 0.817063 0.724414
vt 0.626223 0.608950
vt 0.630693 0.614494
vt 0.116634 0.751031
vt 0.000000 0.552933
vt 0.006720 0.555350
vt 0.115488 0.744004
vt 0.231022 0.552746
vt 0.225493 0.557230
vt 0.517822 0.013148
vt 0.634522 0.198356
vt 0.636016 0.205321
vt 0.510998 0.011051
vt 0.734151 0.004640
vt 0.739601 0.000043
vt 0.380744 0.565851
vt 0.610643 0.565870
vt 0.605183 0.570469
vt 0.387420 0.568333
vt 0.497941 0.765021
vt 0.496800 0.757995
vt 0.235460 0.552920
vt 0.435493 0.666203
vt 0.428465 0.667468
vt 0.239965 0.558433
vt 0.235491 0.781833
vt 0.238038 0.775186
vt 0.169654 0.668243
vt 0.284057 0.865661
vt 0.277434 0.862985
vt 0.170909 0.675403
vt 0.055108 0.865681
vt 0.060573 0.861076
vt 0.819159 0.209123
vt 0.602830 0.207938
vt 0.596165 0.205419
vt 0.824609 0.204507
vt 0.710212 0.395753
vt 0.711151 0.402826
vt 0.324215 0.266074
vt 0.317095 0.274145
vt 0.310677 0.270658
vt 0.319019 0.260363
vt 0.328293 0.270197
vt 0.333526 0.252755
vt 0.340453 0.258646
vt 0.322027 0.278056
vt 0.334936 0.274243
vt 0.326128 0.284138
vt 0.312085 0.291851
vt 0.305757 0.286069
vt 0.173660 0.461564
vt 0.160251 0.448867
vt 0.156557 0.479650
vt 0.139646 0.458747
vt 0.176546 0.506302
vt 0.199752 0.491291
vt 0.209291 0.506216
vt 0.118875 0.451564
vt 0.120612 0.468300
vt 0.081883 0.444139
vt 0.081497 0.424887
vt 0.111848 0.422465
vt 0.127826 0.428007
vt 0.177632 0.181564
vt 0.185475 0.187075
vt 0.200610 0.166178
vt 0.195647 0.161191
vt 0.205531 0.148973
vt 0.213023 0.155516
vt 0.193400 0.173504
vt 0.209689 0.171602
vt 0.201214 0.181273
vt 0.188397 0.168800
vt 0.180700 0.165984
vt 0.189989 0.154646
vt 0.217381 0.552041
vt 0.218721 0.537382
vt 0.574337 0.551121
vt 0.572347 0.565868
vt 0.603419 0.535511
vt 0.609853 0.548569
vt 0.581978 0.562976
vt 0.617797 0.522139
vt 0.586718 0.519757
vt 0.599684 0.505473
vt 0.633723 0.523035
vt 0.628866 0.489461
vt 0.642016 0.494036
vt 0.009647 0.034493
vt 0.021929 0.018637
vt 0.041252 0.034479
vt 0.028923 0.049575
vt 0.643321 0.486132
vt 0.567091 0.134539
vt 0.581585 0.131767
vt 0.506113 0.083549
vt 0.534145 0.097580
vt 0.535224 0.124413
vt 0.518395 0.115773
vt 0.473317 0.056446
vt 0.484140 0.096140
vt 0.468929 0.083205
vt 0.455815 0.035199
vt 0.439736 0.053613
vt 0.429345 0.039092
vt 0.465759 0.025421
vt 0.421380 0.008677
vt 0.435344 0.000046
vt 0.447545 0.373985
vt 0.440622 0.381673
vt 0.431625 0.376249
vt 0.439874 0.366164
vt 0.452405 0.379095
vt 0.455313 0.360156
vt 0.462997 0.366234
vt 0.445152 0.386751
vt 0.459474 0.382594
vt 0.450082 0.393873
vt 0.436794 0.397651
vt 0.429902 0.391140
vt 0.094040 0.398044
vt 0.399711 0.026788
vt 0.318812 0.302411
vt 0.239068 0.519202
vt 0.475259 0.368674
vt 0.440176 0.409649
vt 0.559780 0.530863
vt 0.553042 0.153574
vt 0.607304 0.476760
vt 0.445050 0.346488
vt 0.352350 0.264182
vt 0.493042 0.120668
vt 0.415243 0.383584
vt 0.201768 0.466380
vt 0.195731 0.200583
vt 0.151612 0.422059
vt 0.293955 0.281274
vt 0.000000 0.067593
vt 0.022942 0.079080
vt 0.165003 0.180409
vt 0.228290 0.163371
vt 0.439652 0.078729
vt 0.326022 0.241608
vt 0.201104 0.136934
vt 0.069080 0.022347
vt 0.052728 0.002118
vt 0.624102 0.537304
vt 0.479900 0.042361
s 1
usemtl d8
f 25/1/1 26/2/1 27/3/1
f 28/4/2 29/5/2 30/6/2
f 31/7/3 32/8/3 33/9/3
f 35/10/4 34/11/4 36/12/4
f 38/13/5 37/14/5 39/15/5
f 41/16/6 40/17/6 42/18/6
f 43/19/7 44/20/7 45/21/7
f 47/22/8 46/23/8 48/24/8
f 14/25/9 15/26/9 26/27/9 25/28/9
f 15/26/10 13/29/10 27/30/10 26/27/10
f 13/29/11 14/25/11 25/28/11 27/30/11
f 20/31/12 21/32/12 29/33/12 28/34/12
f 21/32/13 19/35/13 30/36/13 29/33/13
f 19/35/14 20/31/14 28/34/14 30/36/14
f 8/37/15 9/38/15 32/39/15 31/40/15
f 9/38/16 7/41/16 33/42/16 32/39/16
f 7/41/17 8/37/17 31/40/17 33/42/17
f 1/43/18 3/44/18 34/45/18 35/46/18
f 3/44/19 2/47/19 36/48/19 34/45/19
f 2/47/20 1/43/20 35/46/20 36/48/20
f 6/49/21 5/50/21 37/51/21 38/52/21
f 5/50/22 4/53/22 39/54/22 37/51/22
f 4/53/23 6/49/23 38/52/23 39/54/23
f 10/55/24 12/56/24 40/57/24 41/58/24
f 12/56/25 11/59/25 42/60/25 40/57/25
f 11/59/26 10/55/26 41/58/26 42/60/26
f 17/61/27 18/62/27 44/63/27 43/64/27
f 18/62/28 16/65/28 45/66/28 44/63/28
f 16/65/29 17/61/29 43/64/29 45/66/29
f 24/67/30 23/68/30 46/69/30 47/70/30
f 23/68/31 22/71/31 48/72/31 46/69/31
f 22/71/32 24/67/32 47/70/32 48/72/32
f 49/73/33 52/74/33 113/75/33 114/76/33
f 50/77/34 49/73/34 108/78/34 107/79/34
f 51/80/35 50/77/35 91/81/35 92/82/35
f 52/74/36 51/80/36 53/83/36 54/84/36
f 54/84/36 53/83/36 111/85/37 112/86/38
f 55/87/39 58/88/39 112/86/38 111/85/37
f 56/89/40 55/87/40 98/90/40 97/91/40
f 57/92/41 56/93/41 67/94/42 68/95/43
f 58/88/44 57/92/44 60/96/44 59/97/44
f 59/97/44 60/96/44 116/98/44 115/99/44
f 61/100/45 64/101/45 120/102/45 119/103/45
f 62/104/33 61/100/33 66/105/33 65/106/33
f 63/107/44 62/104/44 115/99/44 116/98/44
f 64/101/46 63/107/46 117/108/46 118/109/46
f 65/106/33 66/105/33 114/76/33 113/75/33
f 68/110/43 67/111/42 101/112/42 102/113/42
f 69/114/42 72/115/42 102/116/42 101/112/42
f 70/117/47 69/114/47 99/118/47 100/119/47
f 71/120/48 70/117/48 75/121/48 76/122/48
f 72/123/46 71/124/46 74/125/46 73/126/46
f 73/126/46 74/125/46 118/109/46 117/108/46
f 76/127/48 75/121/48 105/128/48 106/129/48
f 77/130/49 80/131/49 103/132/49 104/133/49
f 78/134/34 77/130/34 83/135/34 84/136/34
f 79/137/45 78/134/45 81/138/45 82/139/45
f 80/140/48 79/137/48 106/141/48 105/142/48
f 82/139/45 81/138/45 119/103/45 120/102/45
f 84/136/34 83/135/34 107/79/34 108/78/34
f 85/143/50 88/144/50 110/145/35 109/146/35
f 86/147/49 85/143/49 96/148/49 95/149/49
f 87/150/51 86/147/51 94/151/47 93/152/52
f 88/144/40 87/150/40 89/153/40 90/154/40
f 90/154/40 89/153/40 97/91/40 98/90/40
f 92/82/35 91/81/35 109/146/35 110/145/35
f 93/152/52 94/151/47 100/119/47 99/118/47
f 95/149/49 96/148/49 104/133/49 103/132/49
f 57/92/53 68/95/53 16/155/7 60/96/7
f 22/156/8 106/141/54 79/137/54 82/139/55
f 92/82/56 10/157/57 53/83/58 51/80/58
f 97/91/59 1/158/59 67/111/59 56/89/59
f 86/147/60 95/149/61 4/159/62 94/151/61
f 87/150/63 93/152/64 3/160/63 89/153/63
f 2/161/65 3/160/63 93/152/64 99/118/65
f 101/112/66 2/161/65 99/118/65 69/114/66
f 67/111/59 1/158/59 2/161/65 101/112/66
f 89/153/63 3/160/63 1/158/59 97/91/59
f 105/128/61 6/162/61 103/132/61 80/131/61
f 75/121/62 5/163/62 6/162/61 105/128/61
f 100/119/5 5/163/62 75/121/62 70/117/5
f 94/151/61 4/159/62 5/163/62 100/119/5
f 103/132/61 6/162/61 4/159/62 95/149/61
f 7/164/67 109/146/67 91/81/68 8/165/68
f 96/148/67 7/164/67 9/166/68 104/133/69
f 85/143/67 109/146/67 7/164/67 96/148/67
f 8/165/68 91/81/68 50/77/68 107/79/68
f 83/135/69 9/166/68 8/165/68 107/79/68
f 104/133/69 9/166/68 83/135/69 77/130/69
f 88/144/58 90/154/58 12/167/56 110/145/57
f 11/168/58 12/167/56 90/154/58 98/90/58
f 111/85/70 11/168/58 98/90/58 55/87/58
f 53/83/58 10/157/57 11/168/58 111/85/70
f 110/145/57 12/167/56 10/157/57 92/82/56
f 115/99/1 14/169/71 13/170/72 59/97/1
f 15/171/73 54/84/72 112/86/1 13/170/72
f 59/97/1 13/170/72 112/86/1 58/88/1
f 65/106/71 14/169/71 115/99/1 62/104/1
f 113/75/72 15/171/73 14/169/71 65/106/71
f 52/74/72 54/84/72 15/171/73 113/75/72
f 102/172/53 17/173/74 16/155/7 68/95/53
f 60/96/7 16/155/7 18/174/7 116/98/75
f 73/126/74 17/173/74 102/172/53 72/123/53
f 117/108/75 18/174/7 17/173/74 73/126/74
f 116/98/75 18/174/7 117/108/75 63/107/75
f 19/175/2 119/103/76 81/138/2 20/176/76
f 66/105/76 19/175/2 21/177/77 114/76/77
f 61/100/76 119/103/76 19/175/2 66/105/76
f 20/176/76 81/138/2 78/134/2 84/136/76
f 108/78/77 21/177/77 20/176/76 84/136/76
f 114/76/77 21/177/77 108/78/77 49/73/77
f 118/109/78 24/178/8 120/102/8 64/101/78
f 74/125/78 23/179/78 24/178/8 118/109/78
f 71/124/78 76/180/79 23/179/78 74/125/78
f 23/179/78 76/180/79 106/141/54 22/156/8
f 120/102/8 24/178/8 22/156/8 82/139/55
f 49/73/80 50/77/80 51/80/80 52/74/80
f 55/87/81 56/93/81 57/92/81 58/88/81
f 61/100/82 62/104/82 63/107/82 64/101/82
f 69/114/83 70/117/83 71/181/83 72/115/83
f 77/182/84 78/134/84 79/137/84 80/140/84
f 85/143/85 86/147/85 87/150/85 88/144/85
